<?xml version="1.0" standalone="no"?>
<!DOCTYPE svg PUBLIC "-//W3C//DTD SVG 20010904//EN"
 "http://www.w3.org/TR/2001/REC-SVG-20010904/DTD/svg10.dtd">
<svg version="1.0" xmlns="http://www.w3.org/2000/svg"
 width="481.000000pt" height="81.000000pt" viewBox="0 0 481.000000 81.000000"
 preserveAspectRatio="xMidYMid meet">

<g transform="translate(0.000000,81.000000) scale(0.100000,-0.100000)"
fill="#000000" stroke="none">
<path d="M283 802 c-5 -4 -12 -15 -16 -24 -5 -15 -19 -18 -70 -18 -91 0 -101
-10 -105 -107 l-4 -78 351 0 351 0 0 63 c0 61 -11 99 -34 114 -6 4 -38 8 -71
8 -52 0 -62 3 -81 27 -19 24 -24 26 -38 14 -9 -7 -16 -20 -16 -27 0 -11 -23
-14 -109 -14 -99 0 -110 2 -116 19 -7 22 -27 32 -42 23z m-13 -132 c0 -34 22
-49 45 -30 8 7 15 23 15 37 0 14 4 21 10 18 13 -8 13 -51 0 -76 -13 -24 -57
-25 -82 -2 -18 17 -23 39 -12 67 10 26 24 18 24 -14z m310 -35 c21 0 26 5 28
33 3 28 6 31 18 21 21 -17 17 -47 -10 -74 -28 -28 -60 -24 -83 12 -14 20 -14
28 -3 51 l14 27 5 -35 c5 -29 10 -35 31 -35z"/>
<path d="M980 420 l0 -240 35 0 35 0 0 99 c0 75 4 101 15 111 19 16 23 13 126
-110 83 -99 84 -100 128 -100 l43 0 -58 68 c-32 37 -82 94 -111 128 -29 34
-53 65 -53 70 0 5 46 55 102 111 l103 103 -35 0 c-31 0 -47 -12 -147 -112
l-113 -113 0 113 0 112 -35 0 -35 0 0 -240z"/>
<path d="M1465 535 c-131 -46 -152 -262 -33 -335 47 -29 125 -35 192 -16 54
16 56 18 56 52 l0 35 -32 -23 c-27 -19 -46 -23 -101 -23 -65 0 -70 2 -98 33
-18 20 -29 43 -29 62 l0 30 136 0 137 0 -6 49 c-9 72 -31 109 -80 132 -50 22
-87 23 -142 4z m129 -57 c14 -13 28 -35 32 -50 l6 -28 -106 0 c-101 0 -106 1
-106 21 0 11 13 34 29 50 38 38 106 41 145 7z"/>
<path d="M1845 535 c-131 -46 -152 -262 -33 -335 47 -29 125 -35 192 -16 54
16 56 18 56 52 l0 35 -32 -23 c-27 -19 -46 -23 -101 -23 -65 0 -70 2 -98 33
-18 20 -29 43 -29 62 l0 30 136 0 137 0 -6 49 c-9 72 -31 109 -80 132 -50 22
-87 23 -142 4z m129 -57 c14 -13 28 -35 32 -50 l6 -28 -106 0 c-101 0 -106 1
-106 21 0 11 13 34 29 50 38 38 106 41 145 7z"/>
<path d="M2248 527 c-45 -23 -48 -23 -48 -6 0 14 -7 19 -30 19 l-30 0 0 -245
0 -245 30 0 30 0 0 71 0 71 33 -9 c133 -34 227 38 229 176 2 111 -41 176 -122
187 -36 4 -55 0 -92 -19z m129 -66 c43 -64 27 -186 -29 -225 -25 -18 -84 -21
-123 -6 l-26 10 3 111 3 112 35 19 c22 11 50 18 75 16 32 -2 44 -9 62 -37z"/>
<path d="M210 430 l0 -40 45 0 45 0 0 40 0 40 -45 0 -45 0 0 -40z"/>
<path d="M390 430 l0 -40 50 0 50 0 0 40 0 40 -50 0 -50 0 0 -40z"/>
<path d="M580 430 l0 -40 45 0 45 0 0 40 0 40 -45 0 -45 0 0 -40z"/>
<path d="M580 265 c0 -33 4 -45 15 -45 8 0 15 7 15 15 0 8 4 15 9 15 5 0 14
-7 21 -15 7 -8 24 -15 39 -15 l26 0 -29 23 -29 23 28 22 28 22 -25 0 c-14 0
-31 -7 -38 -15 -7 -8 -16 -15 -21 -15 -5 0 -9 7 -9 15 0 8 -7 15 -15 15 -11 0
-15 -12 -15 -45z"/>
<path d="M212 258 c3 -43 3 -43 43 -43 40 0 40 0 43 43 l3 42 -46 0 -46 0 3
-42z"/>
<path d="M394 286 c-3 -8 -4 -27 -2 -43 3 -26 6 -28 48 -28 l45 0 3 43 3 42
-46 0 c-30 0 -47 -5 -51 -14z"/>
<path d="M101 149 c-1 -9 7 -23 17 -30 15 -12 16 -12 6 1 -6 8 -14 22 -17 30
-5 13 -6 12 -6 -1z"/>
<path d="M762 132 c-11 -25 -11 -25 4 -10 9 9 15 21 13 27 -2 6 -10 -2 -17
-17z"/>
<path d="M287 103 c84 -2 222 -2 305 0 84 1 16 3 -152 3 -168 0 -236 -2 -153
-3z"/>
</g>
</svg>
